<?xml version="1.0" standalone="no"?><!DOCTYPE svg PUBLIC "-//W3C//DTD SVG 1.1//EN" "http://www.w3.org/Graphics/SVG/1.1/DTD/svg11.dtd"><svg t="1588482919489" class="icon" viewBox="0 0 1024 1024" version="1.1" xmlns="http://www.w3.org/2000/svg" p-id="2148" xmlns:xlink="http://www.w3.org/1999/xlink" width="32" height="32"><defs><style type="text/css"></style></defs><path d="M48.761905 975.238095c-18.724571 12.04419-11.995429 18.773333 0 0h146.285714v48.761905H48.761905c-35.303619 0-48.761905-13.458286-48.761905-48.761905v-146.285714h48.761905v146.285714zM48.761905 48.761905v146.285714H0V48.761905c0-35.352381 13.458286-48.761905 48.761905-48.761905h146.285714v48.761905H48.761905C36.766476 29.988571 30.037333 36.717714 48.761905 48.761905z m48.761905 731.428571h146.285714V292.571429H97.52381v487.619047z m195.047619 0h48.761904V292.571429H292.571429v487.619047z m48.761904 0h97.52381V292.571429H341.333333v487.619047z m146.285715 0h48.761904V292.571429h-48.761904v487.619047z m97.523809 0h146.285714V292.571429h-146.285714v487.619047z m195.047619 0h48.761905V292.571429h-48.761905v487.619047z m48.761905 0h97.523809V292.571429h-97.523809v487.619047z m146.285714-731.428571c18.724571-12.04419 11.995429-18.773333 0 0h-146.285714V0h146.285714c35.352381 0 48.761905 13.409524 48.761905 48.761905v146.285714h-48.761905V48.761905z m0 975.238095h-146.285714v-48.761905h146.285714c11.995429 18.773333 18.724571 12.04419 0 0v-146.285714h48.761905v146.285714c0 35.303619-13.409524 48.761905-48.761905 48.761905z" p-id="2149" fill="#43bd56"></path></svg>